<!-- Generator: Adobe Illustrator 24.0.0, SVG Export Plug-In  -->
<svg version="1.1" xmlns="http://www.w3.org/2000/svg" xmlns:xlink="http://www.w3.org/1999/xlink" x="0px" y="0px"
	 width="118.42px" height="116.69px" viewBox="0 0 118.42 116.69" style="enable-background:new 0 0 118.42 116.69;"
	 xml:space="preserve">
<style type="text/css">
	.st0{fill:#004A8F;}
</style>
<defs>
</defs>
<g>
	<path class="st0" d="M11.83,84.38H3.21v2.83h8.21c1.29,0,2.15,0.22,2.61,0.66c0.45,0.44,0.68,1.26,0.68,2.45v1.81
		c0,1.2-0.23,2.01-0.68,2.45c-0.45,0.44-1.32,0.66-2.61,0.66H3.29c-1.29,0-2.16-0.22-2.61-0.66C0.23,94.14,0,93.33,0,92.13v-0.36
		l2.7-0.56v1.56h9.31v-3H3.8c-1.28,0-2.14-0.22-2.59-0.66c-0.45-0.44-0.67-1.26-0.67-2.45v-1.46c0-1.2,0.22-2.02,0.67-2.46
		c0.45-0.44,1.31-0.66,2.59-0.66h7.47c1.24,0,2.09,0.21,2.56,0.63c0.47,0.42,0.7,1.18,0.7,2.25v0.28l-2.7,0.64V84.38z"/>
	<path class="st0" d="M24.11,91.29h0.46c0.22,0,0.38,0.06,0.47,0.19c0.09,0.13,0.14,0.38,0.14,0.74v2.07c0,0.4-0.05,0.66-0.15,0.78
		c-0.1,0.11-0.4,0.17-0.92,0.17h-2.28c-0.22,0-0.38-0.07-0.47-0.2c-0.09-0.13-0.14-0.38-0.14-0.75v-2.07c0-0.39,0.05-0.64,0.15-0.76
		c0.1-0.12,0.4-0.18,0.92-0.18H24.11z"/>
	<polygon class="st0" points="32.06,95.24 32.06,82.07 35.12,82.07 35.12,87.18 44.69,87.18 44.69,82.07 47.78,82.07 47.78,95.24 
		44.69,95.24 44.69,89.57 35.12,89.57 35.12,95.24 	"/>
	<path class="st0" d="M55.51,85.19c0-1.2,0.22-2.02,0.67-2.46c0.45-0.44,1.31-0.66,2.59-0.66h9.69c1.28,0,2.14,0.22,2.59,0.66
		c0.45,0.44,0.67,1.26,0.67,2.46v6.94c0,1.2-0.22,2.02-0.67,2.46c-0.45,0.44-1.31,0.65-2.59,0.65h-9.69c-1.28,0-2.14-0.22-2.59-0.65
		c-0.45-0.44-0.67-1.26-0.67-2.46V85.19z M58.57,92.76h10.1v-8.33h-10.1V92.76z"/>
	<path class="st0" d="M79.43,95.24V82.07h2.48l6.2,7.96l6.07-7.96h2.45v13.17h-2.84v-8.13c0-0.16,0.01-0.36,0.03-0.6
		c0.02-0.24,0.05-0.51,0.08-0.81c-0.17,0.34-0.31,0.62-0.43,0.84c-0.12,0.22-0.24,0.4-0.34,0.54l-4.95,6.58h-0.61l-4.96-6.6
		c-0.18-0.25-0.34-0.49-0.46-0.71c-0.13-0.22-0.24-0.43-0.32-0.64c0.03,0.27,0.04,0.52,0.06,0.75c0.01,0.23,0.02,0.44,0.02,0.65
		v8.13H79.43z"/>
	<polygon class="st0" points="104.35,95.24 104.35,82.07 117.82,82.07 117.82,84.32 107.41,84.32 107.41,87.26 113.49,87.26 
		113.49,89.5 107.41,89.5 107.41,92.76 117.95,92.76 117.95,95.24 	"/>
	<path class="st0" d="M0.36,113.86c0-0.06,0-0.12,0.01-0.19c0.01-0.18,0.02-0.43,0.04-0.74c0.01-0.14,0.01-0.26,0.01-0.36v-0.25
		v-5.48c0-0.55-0.03-1.15-0.07-1.8h1.77l3.75,6.01v-4.22c0-0.27-0.01-0.55-0.02-0.85c-0.02-0.3-0.04-0.61-0.07-0.93h1.43l-0.01,0.23
		c-0.01,0.14-0.02,0.27-0.03,0.4c-0.01,0.13-0.02,0.32-0.03,0.56c-0.01,0.16-0.01,0.29-0.01,0.38v0.24v5.48v0.82
		c0,0.27,0.02,0.53,0.05,0.77l0.02,0.21H5.49l-3.83-6.1v4.3c0,0.25,0.01,0.54,0.02,0.87c0.02,0.34,0.04,0.64,0.06,0.93H0.34
		C0.35,114,0.36,113.92,0.36,113.86"/>
	<path class="st0" d="M10.95,106.09c0.66-0.79,1.62-1.19,2.88-1.19c1.2,0,2.13,0.41,2.77,1.21c0.65,0.81,0.97,1.96,0.97,3.46
		c0,1.53-0.33,2.69-0.99,3.48c-0.66,0.79-1.62,1.18-2.89,1.18c-1.19,0-2.11-0.4-2.76-1.21c-0.64-0.81-0.97-1.96-0.97-3.45
		C9.96,108.04,10.29,106.88,10.95,106.09 M12.16,103.67c0.07-0.09,0.14-0.17,0.21-0.25c0.06-0.08,0.12-0.16,0.17-0.23
		c0.05-0.07,0.11-0.16,0.18-0.25c0.05-0.07,0.09-0.14,0.13-0.2c0.04-0.06,0.09-0.12,0.14-0.18c0.04-0.06,0.09-0.14,0.14-0.21
		c0.04-0.08,0.1-0.17,0.17-0.27h0.96c0.12,0.21,0.21,0.37,0.29,0.49c0.07,0.11,0.16,0.24,0.26,0.38c0.06,0.09,0.12,0.18,0.17,0.25
		c0.06,0.08,0.12,0.15,0.19,0.23c0.06,0.08,0.13,0.16,0.21,0.25c0.07,0.09,0.17,0.2,0.28,0.32h-1.1l-0.78-1.25l-0.79,1.25h-1.12
		C11.98,103.87,12.08,103.76,12.16,103.67 M13.04,106.23c-0.21,0.13-0.37,0.34-0.5,0.62c-0.13,0.29-0.23,0.65-0.28,1.1
		c-0.06,0.45-0.09,0.99-0.09,1.62c0,0.63,0.03,1.16,0.09,1.61c0.06,0.45,0.15,0.82,0.28,1.11c0.13,0.29,0.3,0.5,0.5,0.63
		c0.2,0.14,0.45,0.2,0.74,0.2c0.28,0,0.53-0.07,0.73-0.2c0.2-0.13,0.36-0.34,0.49-0.63c0.13-0.29,0.22-0.66,0.28-1.11
		c0.06-0.45,0.09-0.98,0.09-1.61c0-0.63-0.03-1.17-0.09-1.62c-0.06-0.45-0.15-0.81-0.28-1.1c-0.13-0.28-0.29-0.49-0.49-0.62
		c-0.2-0.13-0.44-0.2-0.73-0.2C13.49,106.03,13.25,106.1,13.04,106.23 M13.12,115.21c0.16-0.15,0.38-0.22,0.68-0.22
		c0.25,0,0.46,0.08,0.61,0.24c0.16,0.16,0.23,0.36,0.23,0.61c0,0.26-0.08,0.47-0.25,0.62c-0.16,0.16-0.38,0.23-0.65,0.23
		c-0.27,0-0.48-0.08-0.64-0.23c-0.15-0.15-0.23-0.36-0.23-0.62C12.88,115.57,12.96,115.36,13.12,115.21"/>
	<path class="st0" d="M22.6,105.03c-0.03,0.34-0.05,0.66-0.06,0.95c-0.01,0.29-0.01,0.57-0.01,0.86v5.47c0,0.11,0.01,0.24,0.01,0.39
		c0,0.15,0.01,0.31,0.01,0.47c0.01,0.16,0.01,0.33,0.02,0.49c0.01,0.16,0.02,0.31,0.04,0.45h-2.27l0.01-0.21
		c0.01-0.15,0.02-0.32,0.03-0.5c0.01-0.19,0.02-0.34,0.02-0.47v-0.29v-0.32l0.01-5.48c0-0.26-0.01-0.54-0.02-0.85
		c-0.02-0.31-0.04-0.63-0.06-0.95H22.6z"/>
	<path class="st0" d="M30.24,105.03h6.33v1.37c-0.32-0.05-0.61-0.08-0.85-0.1c-0.25-0.02-0.45-0.03-0.62-0.03h-0.65v6.05
		c0,0.04,0,0.12,0,0.23c0,0.12,0.01,0.24,0.02,0.38c0.02,0.27,0.03,0.49,0.04,0.65c0.01,0.16,0.03,0.34,0.04,0.53h-2.31
		c0.02-0.1,0.02-0.18,0.02-0.24c0-0.06,0-0.12,0.01-0.19c0.01-0.11,0.01-0.22,0.02-0.35s0.02-0.26,0.03-0.41
		c0.01-0.14,0.01-0.27,0.02-0.38c0-0.11,0.01-0.19,0.01-0.23v-6.05h-0.64c-0.17,0-0.38,0.01-0.62,0.03
		c-0.25,0.02-0.53,0.05-0.85,0.1V105.03z"/>
	<path class="st0" d="M40.99,105.03l-0.02,0.21c-0.04,0.25-0.06,0.51-0.06,0.8c0,0.29-0.01,0.55-0.01,0.78v1.89h2.61v-1.89
		c0-0.27-0.01-0.55-0.02-0.86c-0.02-0.31-0.04-0.62-0.06-0.94h2.3c-0.02,0.1-0.03,0.19-0.03,0.24c0,0.06,0,0.13,0,0.2
		c-0.01,0.08-0.02,0.18-0.02,0.3c-0.01,0.13-0.02,0.27-0.04,0.44c-0.01,0.14-0.01,0.27-0.01,0.36v0.25v5.49
		c0,0.29,0.01,0.58,0.02,0.86c0.01,0.28,0.04,0.59,0.07,0.93h-2.27c0.02-0.29,0.03-0.6,0.05-0.93c0.02-0.32,0.02-0.61,0.02-0.87
		v-2.37h-2.61v2.37c0,0.18,0,0.39,0.01,0.65c0.01,0.26,0.02,0.5,0.04,0.72c0,0.07,0,0.14,0.01,0.19c0,0.06,0.01,0.14,0.02,0.24H38.7
		c0.03-0.31,0.06-0.61,0.07-0.91c0.01-0.29,0.02-0.59,0.02-0.87v-5.49c0-0.07,0-0.16-0.01-0.26c0-0.1-0.01-0.22-0.02-0.35
		c-0.02-0.33-0.03-0.57-0.04-0.74c-0.01-0.07-0.01-0.14-0.01-0.21c0-0.06-0.01-0.14-0.02-0.24H40.99z"/>
	<path class="st0" d="M48.11,113.9c0.04-0.14,0.1-0.28,0.17-0.44c0.07-0.16,0.14-0.33,0.21-0.53c0.1-0.27,0.17-0.47,0.22-0.6
		l2.29-6.71l-0.11-0.58h2.14l2.43,7.28c0.03,0.07,0.06,0.15,0.1,0.25c0.04,0.1,0.08,0.22,0.13,0.36c0.05,0.14,0.1,0.25,0.14,0.35
		c0.04,0.1,0.07,0.2,0.1,0.28c0.03,0.09,0.07,0.18,0.11,0.26c0.04,0.09,0.08,0.18,0.13,0.29h-2.63c-0.04-0.18-0.08-0.36-0.12-0.54
		c-0.04-0.18-0.08-0.36-0.12-0.52c-0.04-0.16-0.08-0.31-0.11-0.44c-0.04-0.13-0.07-0.23-0.09-0.29l-0.18-0.54h-2.68l-0.18,0.54
		c-0.02,0.08-0.06,0.18-0.1,0.29c-0.04,0.12-0.08,0.25-0.11,0.4c-0.04,0.14-0.07,0.3-0.11,0.45c-0.04,0.16-0.08,0.31-0.11,0.44
		l-0.05,0.21h-1.55L48.11,113.9z M50.47,103.67c0.07-0.09,0.14-0.17,0.21-0.25c0.06-0.08,0.12-0.16,0.17-0.23
		c0.05-0.07,0.12-0.16,0.18-0.26c0.05-0.07,0.09-0.14,0.13-0.2c0.04-0.06,0.09-0.12,0.14-0.18c0.04-0.06,0.09-0.14,0.13-0.21
		c0.05-0.08,0.1-0.17,0.17-0.28h0.95c0.12,0.21,0.21,0.37,0.29,0.49c0.07,0.11,0.16,0.24,0.26,0.38c0.06,0.09,0.12,0.18,0.18,0.26
		c0.06,0.08,0.12,0.15,0.18,0.23c0.06,0.08,0.13,0.16,0.21,0.25c0.07,0.09,0.17,0.2,0.28,0.32h-1.1l-0.78-1.25l-0.79,1.25h-1.12
		C50.3,103.87,50.39,103.76,50.47,103.67 M50.61,110.58h1.96l-0.95-3.21L50.61,110.58z M53.46,102c0.06-0.13,0.14-0.29,0.22-0.47
		c0.03-0.07,0.07-0.14,0.1-0.21c0.03-0.06,0.06-0.13,0.08-0.19c0.03-0.07,0.05-0.14,0.07-0.21c0.02-0.07,0.06-0.17,0.1-0.28h1.33
		l-1.44,1.92h-0.77C53.29,102.33,53.39,102.14,53.46,102"/>
	<path class="st0" d="M57.51,105.03h6.33v1.37c-0.32-0.05-0.61-0.08-0.85-0.1c-0.25-0.02-0.45-0.03-0.62-0.03h-0.65v6.05
		c0,0.04,0,0.12,0,0.23c0,0.12,0.01,0.24,0.02,0.38c0.02,0.27,0.03,0.49,0.04,0.65c0.01,0.16,0.03,0.34,0.04,0.53h-2.31
		c0.02-0.1,0.02-0.18,0.02-0.24c0-0.06,0-0.12,0.01-0.19c0.01-0.11,0.01-0.22,0.02-0.35c0-0.12,0.01-0.26,0.03-0.41
		c0.01-0.14,0.01-0.27,0.02-0.38c0-0.11,0.01-0.19,0.01-0.23v-6.05h-0.64c-0.17,0-0.38,0.01-0.62,0.03
		c-0.25,0.02-0.53,0.05-0.85,0.1V105.03z"/>
	<path class="st0" d="M77.21,111.41c0,0.8-0.27,1.47-0.84,2.02c-0.61,0.59-1.43,0.9-2.39,0.9c-0.63,0-1.22-0.11-1.74-0.32
		c-0.19-0.06-0.4-0.17-0.65-0.32l-0.13-0.23v-1.13l0.17-0.23l0.29,0.04c0.38,0.4,0.76,0.65,1.09,0.78c0.21,0.08,0.52,0.1,0.92,0.1
		c0.42,0,0.78-0.13,1.07-0.4c0.29-0.25,0.42-0.55,0.42-0.88c0-0.27-0.06-0.48-0.19-0.67c-0.19-0.23-0.52-0.48-1.05-0.73L73.53,110
		c-0.78-0.38-1.28-0.76-1.6-1.15c-0.31-0.42-0.48-0.9-0.48-1.41c0-0.69,0.31-1.32,0.94-1.85c0.61-0.52,1.32-0.8,2.16-0.8
		c0.23,0,0.63,0.08,1.22,0.23c0.17,0.04,0.42,0.1,0.76,0.21l0.19,0.25v1.13l-0.17,0.25l-0.27-0.06c-0.19-0.19-0.46-0.36-0.84-0.53
		c-0.86-0.4-1.38-0.31-1.83,0.13c-0.25,0.25-0.36,0.53-0.36,0.8l0.27,0.54c0.17,0.17,0.44,0.36,0.82,0.57l0.84,0.44
		c0.86,0.46,1.43,0.88,1.7,1.28C77.1,110.38,77.21,110.82,77.21,111.41"/>
	<path class="st0" d="M80.61,113.3c0,0.36-0.08,0.61-0.27,0.78c-0.19,0.17-0.44,0.25-0.78,0.25c-0.29,0-0.55-0.1-0.73-0.27
		c-0.19-0.17-0.29-0.42-0.29-0.71c0-0.61,0.38-0.94,1.05-0.94C80.52,112.39,80.61,113.02,80.61,113.3"/>
	<polygon class="st0" points="89.32,112.1 89.38,113.95 89.32,114.13 89.13,114.22 87.66,114.22 87.47,114.13 87.41,113.95 
		87.47,112.08 87.47,110.04 84.49,110.04 84.49,112.1 84.55,113.95 84.49,114.13 84.3,114.22 82.83,114.22 82.64,114.13 
		82.58,113.95 82.64,112.1 82.64,107.02 82.56,105.19 82.64,104.98 82.83,104.92 84.3,104.92 84.49,104.98 84.55,105.19 
		84.49,107.02 84.49,108.72 87.47,108.72 87.47,107.02 87.41,105.19 87.47,104.98 87.66,104.92 89.15,104.92 89.34,104.98 
		89.4,105.19 89.32,107.02 	"/>
	<path class="st0" d="M97.84,106.16c-0.69-0.92-1.64-1.39-2.83-1.39c-1.15,0-2.1,0.42-2.77,1.26c-0.67,0.82-1.01,2.01-1.01,3.53
		c0,1.51,0.36,2.71,1.03,3.53c0.67,0.82,1.6,1.24,2.75,1.24c1.11,0,2.01-0.4,2.68-1.16c0.76-0.84,1.11-2.06,1.11-3.59
		C98.8,108.17,98.49,107.04,97.84,106.16 M96.33,112.39c-0.29,0.48-0.71,0.73-1.32,0.73c-0.59,0-1.03-0.25-1.32-0.73
		c-0.33-0.57-0.52-1.51-0.52-2.81c0-1.3,0.19-2.27,0.55-2.83c0.29-0.48,0.71-0.71,1.3-0.71c0.61,0,1.03,0.23,1.32,0.71
		c0.36,0.61,0.55,1.55,0.55,2.83C96.87,110.88,96.68,111.83,96.33,112.39"/>
	<polygon class="st0" points="110.05,112.08 110.22,113.92 110.15,114.13 109.97,114.22 108.5,114.22 108.22,113.95 108.18,112.1 
		107.95,107.86 105.75,113.11 105.5,113.27 104.72,113.27 104.49,113.11 102.24,107.9 102.01,112.1 101.97,113.95 101.7,114.22 
		100.8,114.22 100.61,114.13 100.54,113.92 100.73,112.06 101.01,107.02 101.05,105.17 101.3,104.92 102.79,104.9 103.04,105.07 
		105.41,110.63 107.74,105.07 107.97,104.92 109.44,104.92 109.69,105.17 109.74,107.02 	"/>
	<path class="st0" d="M118.42,113.09v0.86l-0.25,0.27h-5.16l-0.19-0.08l-0.06-0.19l0.08-1.87v-5.04l-0.08-1.85l0.08-0.21l0.19-0.06
		h4.95l0.25,0.25v0.82l-0.08,0.19l-0.19,0.08l-1.97-0.1h-1.32v2.65h0.94c0.13,0,0.36,0,0.67-0.02c0.34-0.02,0.67-0.04,0.99-0.06
		l0.19,0.06l0.08,0.19v0.94l-0.08,0.19l-0.19,0.06l-1.68-0.1h-0.92v2.85h1.68c0.23,0,0.5,0,0.82-0.02c0.34-0.02,0.65-0.04,0.99-0.06
		l0.19,0.06L118.42,113.09z"/>
	<rect x="0.33" y="98.52" class="st0" width="118.09" height="0.56"/>
	
		<rect x="50.02" y="5.06" transform="matrix(0.7164 -0.6977 0.6977 0.7164 5.5889 48.3444)" class="st0" width="24.47" height="24.47"/>
	
		<rect x="50.02" y="42.42" transform="matrix(0.7164 -0.6976 0.6976 0.7164 -20.4764 58.9304)" class="st0" width="24.47" height="24.47"/>
	
		<rect x="22.53" y="20.25" transform="matrix(0.7163 -0.6978 0.6978 0.7163 -14.2519 36.8952)" class="st0" width="31.44" height="31.45"/>
	
		<rect x="70.54" y="20.25" transform="matrix(0.7164 -0.6977 0.6977 0.7164 -0.6346 70.3905)" class="st0" width="31.44" height="31.44"/>
</g>
</svg>
